<svg width="112" height="112" viewBox="0 0 112 112" fill="none" xmlns="http://www.w3.org/2000/svg">
<g clip-path="url(#clip0_50_25)">
<path d="M56 111.041C25.6503 111.041 0.957642 86.3498 0.957642 56C0.958762 25.6502 25.6503 0.95871 56 0.95871C86.3509 0.95871 111.042 25.6502 111.042 56.0011C111.042 86.352 86.3509 111.041 56 111.041Z" fill="#008EA1"/>
<ellipse cx="56" cy="67.312" rx="21.28" ry="13.328" fill="#272727"/>
<path d="M80.7768 54.2033C79.3241 48.6925 79.3071 39.7549 79.3071 39.7549C73.9936 41.3794 72.1972 50.9942 72.1972 50.9942C68.6541 43.2 74.8189 28.5475 74.8189 28.5475C69.866 28.3092 66.0211 33.9716 64.3174 37.02C63.9613 37.6573 62.9992 37.4099 62.9901 36.678C62.9506 33.69 63.8685 29.3603 63.8685 29.3603C64.8352 10.687 54.3687 10.8501 54.3687 10.8501C57.4268 12.6364 57.2662 22.2159 52.1144 27.7358C46.9603 33.2557 48.733 40.0775 48.733 40.0775C41.969 37.1545 44.706 26.5992 44.706 26.5992C32.7902 35.8538 39.553 51.6063 39.553 51.6063C32.9971 48.9604 33.092 41.1126 33.092 41.1126C29.7581 52.5001 30.3448 60.7857 33.0332 66.7547C34.2067 70.9009 36.4294 74.6002 39.4027 77.5335V84.044C39.4027 86.1884 40.895 88.1059 42.9955 88.4422C45.6805 88.8719 47.9992 86.7926 47.9992 84.1649V83.0203C49.3107 83.5071 50.6786 83.8764 52.085 84.1295V87.5951C52.085 89.7395 53.5773 91.657 55.6778 91.9933C58.364 92.4242 60.6816 90.3425 60.6816 87.716V84.1284C62.088 83.8753 63.4559 83.5059 64.7673 83.0192V84.0417C64.7673 86.1861 66.2596 88.1036 68.3602 88.4399C71.0452 88.8697 73.3639 86.7903 73.3639 84.1626V77.53C76.2219 74.7108 78.3891 71.1848 79.5954 67.2347C81.4868 62.0454 81.4551 56.7751 80.7768 54.2033ZM45.2577 71.0423C42.1148 70.7185 39.5315 68.2242 39.0771 65.0721C38.8374 63.4111 39.1833 61.8493 39.9238 60.5428C42.2448 62.091 46.3916 64.2524 52.8108 65.5748C52.0601 68.9538 48.9116 71.4196 45.2577 71.0423ZM55.714 77.5574C55.714 78.385 54.9758 79.0383 54.1267 78.8844C53.4801 78.7669 53.0369 78.1548 53.0369 77.4924V75.2078C53.0369 74.5455 53.4801 73.9322 54.1267 73.8148C54.9758 73.6609 55.7151 74.3141 55.7151 75.1417V77.5574H55.714ZM59.7297 77.5574C59.7297 78.385 58.9914 79.0383 58.1424 78.8844C57.4957 78.7669 57.0526 78.1548 57.0526 77.4924V75.2078C57.0526 74.5455 57.4957 73.9322 58.1424 73.8148C58.9914 73.6609 59.7308 74.3141 59.7308 75.1417V77.5574H59.7297ZM73.6884 65.0721C73.2339 68.2242 70.6506 70.7185 67.5077 71.0423C63.8538 71.4185 60.7053 68.9538 59.9546 65.5748C66.3749 64.2513 70.5217 62.091 72.8416 60.5428C73.5821 61.8493 73.928 63.4111 73.6884 65.0721Z" fill="white"/>
</g>
<defs>
<clipPath id="clip0_50_25">
<rect width="112" height="112" fill="white"/>
</clipPath>
</defs>
</svg>
