<svg width="135" height="218" viewBox="0 0 135 218" fill="none" xmlns="http://www.w3.org/2000/svg">
<g clip-path="url(#clip0_23_246)">
<ellipse cx="68" cy="151.5" rx="58" ry="36.5" fill="#0D0D0D"/>
<path d="M133.867 116.125C129.975 101.364 129.93 77.4237 129.93 77.4237C115.697 81.7751 110.886 107.529 110.886 107.529C101.395 86.6516 117.908 47.4039 117.908 47.4039C104.641 46.7658 94.3424 61.9329 89.7788 70.0982C88.825 71.8051 86.2479 71.1425 86.2237 69.1821C86.1177 61.1787 88.5766 49.5812 88.5766 49.5812C91.1658 -0.43653 63.1306 0.00012859 63.1306 0.00012859C71.3219 4.78509 70.8919 30.4444 57.0923 45.2298C43.2867 60.0152 48.0349 78.2879 48.0349 78.2879C29.9171 70.4585 37.2484 42.1854 37.2484 42.1854C5.331 66.9744 23.4458 109.169 23.4458 109.169C5.88516 102.081 6.13953 81.0605 6.13953 81.0605C-2.79068 111.563 -1.21903 133.756 5.98206 149.745C9.12535 160.851 15.0788 170.76 23.043 178.616V196.055C23.043 201.799 27.0403 206.935 32.6667 207.836C39.8587 208.987 46.0696 203.418 46.0696 196.379V193.313C49.5823 194.617 53.2465 195.607 57.0136 196.284V205.567C57.0136 211.311 61.0108 216.447 66.6372 217.348C73.8323 218.502 80.0401 212.926 80.0401 205.891V196.281C83.8072 195.603 87.4713 194.614 90.9841 193.31V196.049C90.9841 201.793 94.9813 206.929 100.608 207.83C107.8 208.981 114.011 203.411 114.011 196.373V178.607C121.666 171.056 127.471 161.611 130.702 151.03C135.768 137.13 135.684 123.014 133.867 116.125ZM38.7262 161.229C30.3077 160.362 23.3882 153.681 22.1709 145.238C21.5289 140.789 22.4556 136.605 24.439 133.106C30.656 137.253 41.7635 143.042 58.9577 146.584C56.9469 155.635 48.5134 162.24 38.7262 161.229ZM66.7341 178.681C66.7341 180.897 64.7567 182.647 62.4825 182.235C60.7504 181.92 59.5633 180.281 59.5633 178.506V172.387C59.5633 170.613 60.7504 168.97 62.4825 168.656C64.7567 168.243 66.7372 169.993 66.7372 172.21V178.681H66.7341ZM77.4903 178.681C77.4903 180.897 75.5129 182.647 73.2387 182.235C71.5066 181.92 70.3195 180.281 70.3195 178.506V172.387C70.3195 170.613 71.5066 168.97 73.2387 168.656C75.5129 168.243 77.4934 169.993 77.4934 172.21V178.681H77.4903ZM114.88 145.238C113.662 153.681 106.743 160.362 98.3245 161.229C88.5373 162.237 80.1037 155.635 78.093 146.584C95.2902 143.039 106.398 137.253 112.612 133.106C114.595 136.605 115.522 140.789 114.88 145.238Z" fill="white"/>
</g>
<defs>
<clipPath id="clip0_23_246">
<rect width="135" height="218" fill="white"/>
</clipPath>
</defs>
</svg>
